<?xml version="1.0" encoding="utf-8"?>
<!-- Generator: Adobe Illustrator 28.0.0, SVG Export Plug-In . SVG Version: 6.00 Build 0)  -->
<svg version="1.1" id="Layer_1" xmlns="http://www.w3.org/2000/svg" xmlns:xlink="http://www.w3.org/1999/xlink" x="0px" y="0px"
	 viewBox="0 0 1200 600" style="enable-background:new 0 0 1200 600;" xml:space="preserve">
<style type="text/css">
	.st0{fill:#FF4B1F;}
	.st1{fill-rule:evenodd;clip-rule:evenodd;fill:#FFFFFF;}
	.st2{fill:#FFFFFF;}
</style>
<g>
	<path class="st0" d="M245.3,179.5c0-13.4,10.8-24.1,24.1-24.1h661.2c13.4,0,24.1,10.8,24.1,24.1v241c0,13.4-10.8,24.1-24.1,24.1
		H269.4c-13.4,0-24.1-10.8-24.1-24.1L245.3,179.5L245.3,179.5z"/>
	<path class="st1" d="M442.2,249.8c-34.5,0-50.7,26.1-51.5,47.8c0.2,7.2-1,15.8-5.4,22.9c-5.6,9.2-15.7,14.7-30.3,14.7h-21.4v-70.5
		c4.5,0,8.2,0,11.4,0c13.3-0.1,16.4-0.1,21.9,1.3c9.3,2.2,15.1,7.3,18.7,13c2-5.2,4.5-10.2,8-14.8c-6.5-5.9-15.3-10.2-26.6-11.8
		c-4.8-0.6-5.6-0.6-27-0.6c-5.8,0-13.1,0-22.4,0v96.4h40.3c24.8,0,45.1-14.9,49.1-40.2h85.3C496.9,276.5,475.5,249.8,442.2,249.8z
		 M408.1,295.1c1.1-11,8.2-32.2,33.4-32.2c29.9,0,33.9,27.2,34.5,32.2H408.1z"/>
	<path class="st2" d="M544,335.1h0.3c3.7-12,21-53,30.4-75.3l0,0c1.3-3,2.4-5.7,3.3-7.9h17l-42.1,96.3h-18.5L493,251.8h17.7
		c4.2,10.3,7.9,19.1,11,26.6v0.1C537.4,316.8,539.3,321.2,544,335.1z"/>
	<path class="st2" d="M605.3,251.8h16.1v96.3h-16.1V251.8z"/>
	<path class="st2" d="M681.4,251.8c-26.8,0-43.1,12.8-43.1,43.6v52.7h15.9v-52.6c0-23.1,10.2-30.7,26.7-30.7
		c13.8,0,27.7,6.5,27.7,30.7v52.6h16.1v-53.7C724.6,264.5,707.7,251.8,681.4,251.8z"/>
	<path class="st2" d="M741.7,251.8h16.1v96.3h-16.1V251.8z"/>
	<path class="st2" d="M768,265h36.1v83.2H820V265h36v-13.2H768V265z"/>
	<path class="st2" d="M866.4,251.8h16.1v96.3h-16.1V251.8z"/>
	<path class="st2" d="M413,320.3c5.2,9.3,14.1,15.9,26.9,16.7c4.9,0.3,23.1,0.7,32.2-17.8l16.3,3c0,0,0,0.1-0.1,0.2
		c-1,2.4-11.8,28.4-48.4,27.7c-14.8-0.5-26.9-6-35.4-14.6C408.1,331,410.8,325.9,413,320.3z"/>
</g>
</svg>
